<?xml version="1.0" standalone="no"?><!DOCTYPE svg PUBLIC "-//W3C//DTD SVG 1.1//EN" "http://www.w3.org/Graphics/SVG/1.1/DTD/svg11.dtd"><svg class="icon" width="200px" height="200.00px" viewBox="0 0 1024 1024" version="1.1" xmlns="http://www.w3.org/2000/svg"><path d="M511.4 63.8c-247.4 0-448 200.6-448 448s200.6 448 448 448 448-200.6 448-448-200.6-448-448-448z m0 829.3c-210.6 0-381.3-170.7-381.3-381.3s170.7-381.3 381.3-381.3 381.3 170.7 381.3 381.3S722 893.1 511.4 893.1z" fill="#3FB1FA" /><path d="M319.5 742.9l-45.2-56.5c26.3-35.1 42.6-67.7 48.9-97.9 8.8-28.8 13.8-80.9 15.1-156.2h-47v-64h48.9v-77.2H406v77.2h103.5c0 15.1-0.6 37-1.9 65.9-1.3 114.2-2.5 190.7-3.8 229.6-1.3 41.4-20.7 62.7-58.3 64-12.6 1.2-33.9 1.9-64 1.9-1.3-16.3-5.6-38.3-13.2-65.9-11.2 22.6-27.5 49-48.8 79.1z m124.2-310.5h-39.5c-2.5 111.7-14.4 188.8-35.8 231.5h41.4c18.8 1.3 28.8-7.5 30.1-26.3 2.5-60.3 3.8-128.7 3.8-205.2z m92.2 297.3v-399h184.4v398.9h-64v-41.4h-54.6v41.4h-65.8z m65.8-335V628h54.6V394.7h-54.6z" fill="#EE777B" /></svg>