<?xml version="1.0" standalone="no"?><!DOCTYPE svg PUBLIC "-//W3C//DTD SVG 1.1//EN" "http://www.w3.org/Graphics/SVG/1.1/DTD/svg11.dtd"><svg class="icon" width="200px" height="200.00px" viewBox="0 0 1024 1024" version="1.1" xmlns="http://www.w3.org/2000/svg"><path d="M745.62 646.16V576.9l-178.9 109.65 178.9 105.8v-59.63h192.22s22.84-1.92 22.84-32.7v-23.09s0-26.93-30.45-28.85H745.62v-1.92" fill="#EE777B" /><path d="M719.93 576.9h-65.67V281.77a28 28 0 0 0-28-28H244.57a28 28 0 0 0-28 28V807.4a28 28 0 0 0 28 28h381.65a28 28 0 0 0 28-28v-15h65.66V844a56.09 56.09 0 0 1-56.09 56.09H207A56.09 56.09 0 0 1 150.87 844V245.18A56.09 56.09 0 0 1 207 189.1h456.84a56.09 56.09 0 0 1 56.09 56.09z" fill="#3FB1FA" /><path d="M95.64 835.44h679.52a32.32 32.32 0 0 1 32.32 32.32 32.32 32.32 0 0 1-32.32 32.32H95.64a32.32 32.32 0 0 1-32.32-32.32 32.32 32.32 0 0 1 32.32-32.32zM934.55 195.15h-46.23v-45.51c0-13.85-12.06-25.72-26.13-25.72s-26.13 11.87-26.13 25.72v45.51h-46.23c-14.07 0-26.13 11.87-26.13 25.72s12.06 25.72 26.13 25.72h46.23v45.51c0 13.85 12.06 25.72 26.13 25.72s26.13-11.82 26.13-25.72v-45.5h46.23c14.07 0 26.13-11.87 26.13-25.72 0-15.88-12.06-25.73-26.13-25.73zM358.28 383H534.4a32.32 32.32 0 0 1 32.32 32.32 32.32 32.32 0 0 1-32.32 32.32H358.28A32.32 32.32 0 0 1 326 415.32 32.32 32.32 0 0 1 358.28 383zM358.28 490.72H534.4A32.32 32.32 0 0 1 566.72 523a32.32 32.32 0 0 1-32.32 32.32H358.28A32.32 32.32 0 0 1 326 523a32.32 32.32 0 0 1 32.28-32.28z" fill="#3FB1FA" /></svg>