<?xml version="1.0" standalone="no"?><!DOCTYPE svg PUBLIC "-//W3C//DTD SVG 1.1//EN" "http://www.w3.org/Graphics/SVG/1.1/DTD/svg11.dtd"><svg class="icon" width="200px" height="200.00px" viewBox="0 0 1024 1024" version="1.1" xmlns="http://www.w3.org/2000/svg"><path d="M511.41 63.81c-247.42 0-448 200.58-448 448s200.58 448 448 448 448-200.58 448-448-200.58-448-448-448z m0 829.27c-210.57 0-381.28-170.7-381.28-381.28s170.7-381.28 381.28-381.28 381.28 170.7 381.28 381.28S722 893.09 511.41 893.09z" fill="#3FB1FA" /><path d="M308.17 502v-60.23h406.47V502H552.81v50.8h148.66V613H552.81v56.45h186.3c-1.26 6.29-4.41 15.05-9.41 26.35q-7.54 24.43-9.41 33.87-105.41 0-205.12-3.76-97.87 0-133.61-56.46-18.83 35.75-56.45 71.55-9.44-11.29-30.11-33.87c-6.29-7.53-11.29-13.17-15.05-16.94q64-58.31 77.15-167.48l65.9 9.39a612.87 612.87 0 0 1-13.21 65.9q20.69 52.71 73.39 65.86V502z m348.14-73.4v-32H368.39v32h-69.63v-92.21h176.89l-13.17-47 84.68-5.65q1.85 9.44 5.65 30.11 3.75 15.08 5.65 22.58h165.6v92.17z" fill="#EE777B" /></svg>