<?xml version="1.0" standalone="no"?><!DOCTYPE svg PUBLIC "-//W3C//DTD SVG 1.1//EN" "http://www.w3.org/Graphics/SVG/1.1/DTD/svg11.dtd"><svg class="icon" width="200px" height="200.00px" viewBox="0 0 1024 1024" version="1.1" xmlns="http://www.w3.org/2000/svg"><path d="M929.3 467.3c16.5 0 29.8 13.3 29.8 29.8V825c0 16.5-13.3 29.8-29.8 29.8s-29.8-13.3-29.8-29.8V497.1c0-16.5 13.3-29.8 29.8-29.8z" fill="#3FB1FA" /><path d="M512 586.5H64.9V318.3h313c74 0 134.1 60.2 134.1 134.1v134.1z m-387.5-59.6h327.9v-74.5c0-41.1-33.4-74.5-74.5-74.5H124.5v149z" fill="#EE777B" /><path d="M94.7 720.6c-8.2 0-14.9 6.7-14.9 14.9s6.7 14.9 14.9 14.9h536.5c8.2 0 14.9-6.7 14.9-14.9s-6.7-14.9-14.9-14.9H94.7z" fill="#3FB1FA" /><path d="M631.2 765.3H94.7c-8 0-15.5-3.1-21.1-8.7-5.6-5.6-8.7-13.1-8.7-21.1 0-16.4 13.4-29.8 29.8-29.8h536.5c8 0 15.5 3.1 21.1 8.7 5.6 5.6 8.7 13.1 8.7 21.1 0 8-3.1 15.4-8.7 21.1-5.6 5.6-13.1 8.7-21.1 8.7zM94.7 735.5h536.5H94.7zM750.4 720.6c-8.2 0-14.9 6.7-14.9 14.9s6.7 14.9 14.9 14.9h178.8c8.2 0 14.9-6.7 14.9-14.9s-6.7-14.9-14.9-14.9H750.4z" fill="#3FB1FA" /><path d="M929.3 765.3H750.4c-16.4 0-29.8-13.4-29.8-29.8 0-8 3.1-15.4 8.7-21.1 5.6-5.6 13.1-8.7 21.1-8.7h178.8c16.4 0 29.8 13.4 29.8 29.8 0 8-3.1 15.4-8.7 21.1-5.6 5.6-13.1 8.7-21 8.7z m-178.8-29.8c-0.1 0-0.1 0 0 0h178.8-178.8z" fill="#3FB1FA" /><path d="M94.7 541.8h834.5c8.2 0 14.9 6.7 14.9 14.9s-6.7 14.9-14.9 14.9H94.7c-8.2 0-14.9-6.7-14.9-14.9s6.7-14.9 14.9-14.9z" fill="#3FB1FA" /><path d="M929.3 586.5H94.7c-16.4 0-29.8-13.4-29.8-29.8s13.4-29.8 29.8-29.8h834.5c16.4 0 29.8 13.4 29.8 29.8s-13.3 29.8-29.7 29.8z m0-29.8H94.8h834.5z" fill="#3FB1FA" /><path d="M94.7 169.2c16.5 0 29.8 13.3 29.8 29.8v626c0 16.5-13.3 29.8-29.8 29.8S64.9 841.5 64.9 825V199c0.1-16.4 13.4-29.8 29.8-29.8z" fill="#3FB1FA" /></svg>