<?xml version="1.0" standalone="no"?><!DOCTYPE svg PUBLIC "-//W3C//DTD SVG 1.1//EN" "http://www.w3.org/Graphics/SVG/1.1/DTD/svg11.dtd"><svg class="icon" width="200px" height="200.00px" viewBox="0 0 1024 1024" version="1.1" xmlns="http://www.w3.org/2000/svg"><path d="M511.41 63.81c-247.42 0-448 200.58-448 448s200.58 448 448 448 448-200.58 448-448-200.58-448-448-448z m0 829.27c-210.57 0-381.28-170.7-381.28-381.28s170.7-381.28 381.28-381.28 381.28 170.7 381.28 381.28S722 893.09 511.41 893.09z" fill="#3FB1FA" /><path d="M327 741V534q-16.94 26.37-33.87 48.93-1.9-18.79-7.53-50.81-3.79-26.33-5.65-41.4Q332.6 391 355.22 289.34l71.51 15.05Q409.79 364.65 392.85 406v335z m99.74-346.25v-54.6h47v-47h65.86v47h67.75v-47h65.86v47h52.69v54.57h-52.66v37.64h64v56.45H409.79v-56.45h64v-37.63zM436.13 741V513.28h276.63V741H645v-20.7H503.88V741z m67.75-175v28.2H645V566z m0 75.27v28.23H645v-28.26z m35.75-246.52v37.64h67.75v-37.66z" fill="#EE777B" /></svg>