<?xml version="1.0" standalone="no"?><!DOCTYPE svg PUBLIC "-//W3C//DTD SVG 1.1//EN" "http://www.w3.org/Graphics/SVG/1.1/DTD/svg11.dtd"><svg class="icon" width="200px" height="200.00px" viewBox="0 0 1024 1024" version="1.1" xmlns="http://www.w3.org/2000/svg"><path d="M330.82 455.52c23.85 0 41.92-18.07 41.92-41.92s-18.07-41.92-41.92-41.92-41.92 18.07-41.92 41.92c0 22.76 19.27 41.92 41.92 41.92m391.21 0c23.85 0 41.92-18.07 41.92-41.92s-18.08-41.91-41.95-41.91-41.91 18.07-41.91 41.92 18.07 41.92 41.91 41.92" fill="#F67575" /><path d="M853.53 909.11c-35.07-60.37-34-68.46-53.57-150.81-15.2-66.45-15.63-137.92-1.19-218.23C888 489.2 919.71 417.62 895.61 320.78c-19.65-61.44-18.35-131.3 3.91-207.67 7.82-26.77-4.78-41.28-18-45.55-12.27-5.12-21.82-2.88-27.58 0-6.64 3.2-15.33 10.44-19.34 26.13-27.58 90.77-27 167.25 2 263.78 10.21 32.85-2.93 72.21-33.44 100.37-43.53 40.21-110.84 49-180.21 23.57-47-16.53-73.28-62-80.34-139.62-4-27.31-22.91-31.36-33.87-31.36-12.92 0-28.12 8.11-31.92 31l-0.22 1.49c-5 73.38-30.94 121.38-74.91 138.66-97.38 36.16-156.55-3.84-177.5-22.72-31.37-28.27-45.38-68.16-35.83-101.54 28.88-96.42 29.42-172.79 2-263.46-3.58-12.48-10.86-21.76-20.41-26.24-5.75-2.67-15.09-4.8-27.36 0.32-9.88 4.91-25.4 17.28-17.26 45.22 21.06 72.42 22.36 142.5 3.58 208.63-23.88 96.1 8.69 169.59 96.84 218.34 13.68 87.89 13.35 157.44-1 218.13-19.54 82.45-17.58 90.41-52.53 150.57-4.56 7.47-6 15.68-3.91 23.68 2.17 8.43 8 15.89 17.7 21.44a33.74 33.74 0 0 0 41.58-9.92l1.09-1.6c63.94-125.1 84.67-226.3 64.58-381.71 97.49 9 178-24.32 219.3-89.7 41.25 65.38 121.59 98.66 219.3 89.7-20.16 155.56-1.14 278.12 65 381.28 3.91 7.68 11.62 13.55 20.63 15.68a32.85 32.85 0 0 0 7.17 0.85 30 30 0 0 0 16.83-5.12c14.77-9.07 20-25.49 13.25-42z" fill="#3FB1FA" /></svg>