<?xml version="1.0" standalone="no"?><!DOCTYPE svg PUBLIC "-//W3C//DTD SVG 1.1//EN" "http://www.w3.org/Graphics/SVG/1.1/DTD/svg11.dtd"><svg class="icon" width="200px" height="200.00px" viewBox="0 0 1024 1024" version="1.1" xmlns="http://www.w3.org/2000/svg"><path fill="#333333" d="M189.89 192.18a49.58 49.58 0 0 0-49.55 49.62v595.59A49.57 49.57 0 0 0 189.89 887h644.22a49.58 49.58 0 0 0 49.55-49.62v-595.6a49.57 49.57 0 0 0-49.55-49.59z m3.37-71.88h637.48c67.71 0 122.6 55.2 122.6 123.32v591.93c0 68.11-54.89 123.32-122.6 123.32H193.26c-67.71 0-122.6-55.2-122.6-123.32V243.62c0-68.11 54.89-123.31 122.6-123.31z"  /><path fill="#333333" d="M301.14 100.44a34.94 34.94 0 1 1 69.88 0v141.31a34.94 34.94 0 1 1-69.88 0z m396 0a34.94 34.94 0 1 1 69.88 0v141.31a34.94 34.94 0 1 1-69.88 0zM114.79 347.61h838.55v70.61H114.79zM269.26 506.48h66.2c18.28 0 33.1 16.47 33.1 36.78S353.74 580 335.46 580h-66.2c-18.28 0-33.1-16.47-33.1-36.78s14.84-36.74 33.1-36.74z m198.6 0h66.2c18.28 0 33.1 16.47 33.1 36.78S552.35 580 534.07 580h-66.2c-18.28 0-33.1-16.47-33.1-36.78s14.81-36.74 33.1-36.74z m198.6 0h66.2c18.28 0 33.1 16.47 33.1 36.78S751 580 732.67 580h-66.2c-18.28 0-33.1-16.47-33.1-36.78s14.82-36.74 33.1-36.74zM269.26 653.6h66.2c18.28 0 33.1 16.47 33.1 36.78s-14.82 36.78-33.1 36.78h-66.2c-18.28 0-33.1-16.47-33.1-36.78s14.84-36.78 33.1-36.78z m198.6 0h66.2c18.28 0 33.1 16.47 33.1 36.78s-14.82 36.78-33.1 36.78h-66.2c-18.28 0-33.1-16.47-33.1-36.78s14.82-36.78 33.11-36.78z m198.6 0h66.2c18.28 0 33.1 16.47 33.1 36.78s-14.82 36.78-33.1 36.78h-66.2c-18.28 0-33.1-16.47-33.1-36.78s14.83-36.78 33.11-36.78z"  /></svg>