<?xml version="1.0" standalone="no"?><!DOCTYPE svg PUBLIC "-//W3C//DTD SVG 1.1//EN" "http://www.w3.org/Graphics/SVG/1.1/DTD/svg11.dtd"><svg class="icon" width="200px" height="200.00px" viewBox="0 0 1024 1024" version="1.1" xmlns="http://www.w3.org/2000/svg"><path fill="#333333" d="M512 64.18C264.69 64.18 64.17 264.69 64.17 512S264.69 959.83 512 959.83 959.83 759.31 959.83 512 759.31 64.17 512 64.17z m0 825.68c-208.35 0-377.85-169.53-377.85-377.85S303.65 134.15 512 134.15 889.85 303.68 889.85 512 720.35 889.85 512 889.85z"  /><path fill="#333333" d="M512 233.3m-44.78 0a44.78 44.78 0 1 0 89.56 0 44.78 44.78 0 1 0-89.56 0Z"  /><path fill="#333333" d="M796.76 512m-44.78 0a44.78 44.78 0 1 0 89.56 0 44.78 44.78 0 1 0-89.56 0Z"  /><path fill="#333333" d="M223.83 512m-44.78 0a44.78 44.78 0 1 0 89.56 0 44.78 44.78 0 1 0-89.56 0Z"  /><path fill="#333333" d="M512 797.02m-44.78 0a44.78 44.78 0 1 0 89.56 0 44.78 44.78 0 1 0-89.56 0Z"  /><path fill="#333333" d="M712.75 348.84L565.78 550.91l-62.76 7.72 7.65-62.83 202.08-146.96z"  /></svg>