<?xml version="1.0" standalone="no"?><!DOCTYPE svg PUBLIC "-//W3C//DTD SVG 1.1//EN" "http://www.w3.org/Graphics/SVG/1.1/DTD/svg11.dtd"><svg class="icon" width="200px" height="200.00px" viewBox="0 0 1024 1024" version="1.1" xmlns="http://www.w3.org/2000/svg"><path fill="#333333" d="M441.88 270.73c35.95 29 58.07 69.13 65.67 118.91h-73.28c-8.3-33.18-24.2-58.07-47.7-74s-52.54-23.5-88.49-23.5c-53.23 0-93.33 18-120.29 54.61-25.58 33.18-38 78.81-38 136.19 0 59.45 12.44 105.08 37.33 137.57q39.41 51.85 122.36 51.85c35.95 0 66.37-9 89.87-27q37.33-29 51.85-87.11h73.28C503.4 615.7 477.83 660.63 437 693.13q-57 45.63-136.88 45.63c-80.88 0-141.72-26.27-182.51-77.43C81.7 617.08 64.42 557.63 64.42 483c0-73.28 18-132.73 55.3-179.05 41.48-52.54 100.93-78.12 179.74-78.12 57.39-0.03 105.09 14.49 142.42 44.9zM956.9 235.48v64.29H792.37v429.31H717.7V299.77H552.48v-64.29z"  /></svg>