<?xml version="1.0" standalone="no"?><!DOCTYPE svg PUBLIC "-//W3C//DTD SVG 1.1//EN" "http://www.w3.org/Graphics/SVG/1.1/DTD/svg11.dtd"><svg class="icon" width="200px" height="200.00px" viewBox="0 0 1024 1024" version="1.1" xmlns="http://www.w3.org/2000/svg"><path d="M199.72 882.91c3.62-20.76-2.8-40.75 4.86-53.75a34.62 34.62 0 0 1 8.9-10.44 12.4 12.4 0 0 1 6.79-2.77h0.1a13.17 13.17 0 0 1 8.18 3.16c19 14 30.7 18.5 50.74 22.28 17 3.25 35.55 3 59 0a269.77 269.77 0 0 0 57.33 38.54c71.56 35.91 161.33 43.72 247.59 23.49s169.51-68.48 227.84-144.74a381.44 381.44 0 0 0 50.78-89.14A494.88 494.88 0 0 0 942 360.72C928.2 308 906 260 877.35 220.27 848.41 180 812.91 148.11 773 128c-50.18-25.28-107-31.69-166.36-12.36a172.8 172.8 0 0 0-66.19 39.18 192.9 192.9 0 0 0-38.59 52.06 98.92 98.92 0 0 1-48.25-20.66c-17.6-14.11-30.79-34.44-39-58.59-4.32-12.09-28.1-16.07-40.52-8.86-20.89 12.11-17.45 34.34-13.55 46.31 11.1 32.49 29.32 60.24 53.9 80 22.74 18.24 50.67 29.33 83.16 30.66 8.81 0.89 23.87 4.13 34.1-6.46 15.95-9.28 28-63 88.36-89.95 47.19-21.12 97.32-10.3 138.71 10.52 33.75 16.95 67.77 57 79.75 81.08 39.45 69.7 39.14 86.24 48.61 130.66 15.26 77 4.54 164.13-24 237.32-12.49 37.73-33.61 61.74-45.6 78.51-52 67.87-111 102.82-188.78 121.05S482.43 852.67 419 820.78c-19.71-9.73-42.11-21.54-58.6-37-4.52-4.33-12.07-9.25-18-8.38-23.66 3.5-47.09 7.9-61.85 5.1-13.82-2.65-26-8.68-39.94-19-10.84-7.95-20.47-8.53-31.48-8.13h-0.29a51.38 51.38 0 0 0-28.63 10.58 80.13 80.13 0 0 0-20.78 23.92c-12.14 20.56-15.15 56-14.09 89.69 0.37 13 9.78 28.75 21.41 28.34s28 5.49 33-23m-79.62-1.73c0.6 13-10.38 24.48-26.76 25.83-15.75 1-26.37-10.27-27.9-22.36-4.53-52.29 2.53-98.92 18.74-137.22 13.2-31.26 32.4-56.87 56.27-75.74s52.09-30.51 83.73-33.94c36.24-3.94 76.69 3.24 119.06 23.65 23.27-13.79 43-23.81 63.69-30.27 20.38-6.32 41.13-9.2 66.24-8.61a190.77 190.77 0 0 1 55.11-65.19 278.81 278.81 0 0 1-3.86-41 266.23 266.23 0 0 1 3.4-45.08 194.09 194.09 0 0 1-26.37-39.12 230.18 230.18 0 0 1-17.73-47q-7.47-2.68-14.87-5.21c-79.75-28.21-149.19-52.75-195.61-192.11-4.1-10.23 4.12-27 17.48-32.61 13.69-6.24 36.24-3.66 39 12.94 8.66 51.7 48.61 124 167.67 157.66 6.91 2.53 14 2.46 26 6.93 7.22 2.46 7.79 10.94 9.42 19.17 3.33 16.52 7.81 32.1 15.32 46.81 7 13.75 20.41 27.82 31 38.34a25.08 25.08 0 0 1 6.69 22.17 301.71 301.71 0 0 0-4.66 53.8c0.23 14.14 7.24 35.85 11 55.12h-0.06c2 10.35-2.4 20.94-10.83 25.83-12.51 7.55-35.26 23.35-45 34.93-7.16 12.05-19.75 26.32-25.47 39.83-3.36 9.45-13.39 14.85-22.49 14.28-26.6-1.79-51.5-6.37-70.82-0.27-25.52 7.91-38.52 23.63-61.29 39.71a19.16 19.16 0 0 1-20 1.26c-38.78-20.41-71.72-33.89-103.49-30.44-24 2.62-39.51 11.22-57.46 25.36s-32.36 33.47-42.42 57.23c-13.07 30.94-16.52 61.81-12.73 105.34" fill="#3FB1FA" /><path d="M846.35 621.29C806.69 611 659.65 593.89 629.7 624c-12.79 12.89-28.19 20.23-39.3 30.39-31.14 28.46-23.17 104-80.28 98.28-58.55-7.08-75.16 2-112.76 20.55 135.52 105.03 400.04-17.85 448.99-151.93z" fill="#EE777B" /></svg>