<?xml version="1.0" standalone="no"?><!DOCTYPE svg PUBLIC "-//W3C//DTD SVG 1.1//EN" "http://www.w3.org/Graphics/SVG/1.1/DTD/svg11.dtd"><svg class="icon" width="200px" height="200.00px" viewBox="0 0 1024 1024" version="1.1" xmlns="http://www.w3.org/2000/svg"><path d="M781.2 645.87v-69.1l178.51 109.4L781.2 791.75v-59.5H589.39s-22.79-1.92-22.79-32.63v-23s0-26.87 30.39-28.79H781.2v-1.92" fill="#EE777B" /><path d="M719.48 576.76H654V282.27a28 28 0 0 0-28-28H245.15a28 28 0 0 0-28 28v524.49a28 28 0 0 0 28 28H626a28 28 0 0 0 28-28v-15h65.52v51.53a56 56 0 0 1-56 56H207.61a56 56 0 0 1-56-56V245.76a56 56 0 0 1 56-56h455.9a56 56 0 0 1 56 56z" fill="#3FB1FA" /><path d="M96.54 834.74h678A32.25 32.25 0 0 1 806.83 867a32.25 32.25 0 0 1-32.25 32.25h-678A32.25 32.25 0 0 1 64.29 867a32.25 32.25 0 0 1 32.25-32.26zM933.64 195.84h-46.13v-45.41c0-13.82-12-25.67-26.07-25.67s-26.07 11.85-26.07 25.67v45.41h-46.14c-14 0-26.07 11.85-26.07 25.67s12 25.67 26.07 25.67h46.13v45.41c0 13.82 12 25.67 26.07 25.67s26.07-11.85 26.07-25.67v-45.42h46.13c14 0 26.07-11.85 26.07-25.67 0.01-15.79-12.02-25.66-26.06-25.66zM358.61 383.28h175.74a32.25 32.25 0 0 1 32.25 32.25 32.25 32.25 0 0 1-32.25 32.25H358.61a32.25 32.25 0 0 1-32.25-32.25 32.25 32.25 0 0 1 32.25-32.25zM358.61 490.77h175.74A32.25 32.25 0 0 1 566.6 523a32.25 32.25 0 0 1-32.25 32.25H358.61A32.25 32.25 0 0 1 326.36 523a32.25 32.25 0 0 1 32.25-32.23z" fill="#3FB1FA" /></svg>