<?xml version="1.0" standalone="no"?><!DOCTYPE svg PUBLIC "-//W3C//DTD SVG 1.1//EN" "http://www.w3.org/Graphics/SVG/1.1/DTD/svg11.dtd"><svg class="icon" width="200px" height="200.00px" viewBox="0 0 1024 1024" version="1.1" xmlns="http://www.w3.org/2000/svg"><path d="M661.38 466.42v59.69c0 3.53 0 6.76-2.06 10.29s-2.65 11.47-4.41 17.06l-2.65 8.23-1.47 4.12c0 1.47-3.23 7.94 0 0A187.61 187.61 0 0 1 634 595.22l-4.7 6.76-2.65 3.23a176.44 176.44 0 0 1-12.06 12.94c-3.82 3.82-7.94 7.35-12.06 10.88l-3.23 2.35-7.65 5.29a159.66 159.66 0 0 1-14.11 7.94l-7.35 3.53-5 1.76a151.72 151.72 0 0 1-15.59 4.7l-7.6 1.49h-4.12a225 225 0 0 1-25.58 0 213.5 213.5 0 0 1-26.47 0h-2.94l-9.41-2.94a151.73 151.73 0 0 1-16.76-5.29h-3.82l-7.35-3.53a160 160 0 0 1-15-8.82l-6.18-4.41-3.23-2.65a170.85 170.85 0 0 1-12.94-11.76c-3.82-3.82-7.35-7.94-10.88-12.06l-2.32-2.94c4.41 5.59 0 1.76 0 0l-4.12-7.35a142.6 142.6 0 0 1-8.53-14.41l-3.82-7.65-1.76-3.82v-0.88a195.55 195.55 0 0 1-11.17-34.7c0-2.94 0-5.88-1.47-8.82s0-6.76 0 0v-60.29a24.11 24.11 0 1 0-48.23 0v34.4a220.84 220.84 0 0 0 13.82 77.63A201.13 201.13 0 0 0 427.61 687a180.55 180.55 0 0 0 75 18.23 249.65 249.65 0 0 0 56.75-4.12A190.25 190.25 0 0 0 677 615.51a221.13 221.13 0 0 0 31.76-92.92 462.54 462.54 0 0 0 0-56.75 24.11 24.11 0 1 0-48.23 0z" fill="#3FB1FA" /><path d="M71.5 929.56A23.23 23.23 0 0 0 93.85 959h836.3a23.23 23.23 0 0 0 22.35-29.41A462.55 462.55 0 0 0 784.59 685.2a450.2 450.2 0 0 0-147-72.34A23.23 23.23 0 0 0 608.16 629c-3.23 12.35-2.94 37.05 9.12 40.58S640.5 677 652 681.08l29.41 12.64a433.15 433.15 0 0 1 62 36.76l24.7 19.41a342.59 342.59 0 0 1 26.17 24.41c8.23 8.53 16.47 17.35 24.11 26.47 3.82 4.41 16.47 20.88 19.11 24.7a433.14 433.14 0 0 1 39.11 62.93q2.65 5.29 9.86 20.4l-750 0.71q5.59-13.46 7.94-18.76c-2.94 6.76 4.41-10 5.88-12.94a432.86 432.86 0 0 1 36.76-62.93l10-14.7 8.84-11.18c7.65-9.12 15.88-17.94 24.11-26.47a342.61 342.61 0 0 1 26.17-24.41l13.23-10.88 11.47-8.53a433.15 433.15 0 0 1 62.34-36.17l29.41-12.94c11.47-4.41 22.94-8.23 34.7-11.76s10-16.17 6.76-29.41a23.23 23.23 0 0 0-29.41-16.17 462.85 462.85 0 0 0-242 172.32A450.5 450.5 0 0 0 71.5 929.56z" fill="#3FB1FA" /><path d="M420 781.65a184.08 184.08 0 0 0 150 13.23A186.73 186.73 0 0 0 694.32 669c2.94-12.35-7.94-41.17-20.29-44.4a23.23 23.23 0 0 0-29.41 16.17q-2.06 8.23-4.7 16.17l-2.92 7.68c-1.76 4.7 2.06-5 0 0l-2.35 5a159.66 159.66 0 0 1-7.97 14.38l-4.41 6.76-2.35 3.24-1.76 2.06a161.15 161.15 0 0 1-23.82 24.11l-3.23 2.35-6.76 4.7a160 160 0 0 1-15.35 8.85l-7.35 3.53-3.82 1.47a158.8 158.8 0 0 1-17.35 5.29l-8.23 1.76c-1.76 0-11.47 1.76-3.53 0a162.32 162.32 0 0 1-36.17 0h-4.41l-5-3.53a158.81 158.81 0 0 1-16.17-4.7l-7.9-2.89-5.29-1.76a159.68 159.68 0 0 1-14.41-7.94l-6.76-4.41-3.23-2.35-2.06-1.76a161.14 161.14 0 0 1-24.12-23.88l-2.35-3.23-4.7-6.76a160 160 0 0 1-8.82-15.29l-3.53-7.35c-2.06-4.7 2.06 5 0 0l-2.07-5.27a159.08 159.08 0 0 1-5-17.35 23.23 23.23 0 0 0-29.41-16.17 50 50 0 0 0-23.23 44.11A184.08 184.08 0 0 0 420 781.65z" fill="#3FB1FA" /><path d="M488.77 770.77v54.69a23.23 23.23 0 1 0 46.17 0v-54.69a23.23 23.23 0 1 0-46.17 0z" fill="#3FB1FA" /><path d="M468.48 859a43.52 43.52 0 1 0 44.11-42.05A43.52 43.52 0 0 0 468.48 859z" fill="#3FB1FA" /><path d="M535.23 241.47h47.64a23.23 23.23 0 1 1 0 46.17h-47.64v50.58a23.23 23.23 0 0 1-46.17 0v-49.7h-50.87a23.23 23.23 0 1 1 0-46.17h50.87v-48.81a23.23 23.23 0 0 1 46.17 0z" fill="#EE777B" /><path d="M571.4 65H453.78a176.43 176.43 0 0 0-176.44 176.47V417.9a58.81 58.81 0 0 0 58.81 58.81H689a58.81 58.81 0 0 0 58.81-58.81V241.47A176.43 176.43 0 0 0 571.4 65z m123.5 319.67a45.58 45.58 0 0 1-45.58 45.58H375.85a45.58 45.58 0 0 1-45.58-45.58V248.23A136.74 136.74 0 0 1 467 111.49h91.16A136.74 136.74 0 0 1 694.9 248.23z" fill="#3FB1FA" /></svg>