<?xml version="1.0" standalone="no"?><!DOCTYPE svg PUBLIC "-//W3C//DTD SVG 1.1//EN" "http://www.w3.org/Graphics/SVG/1.1/DTD/svg11.dtd"><svg class="icon" width="200px" height="200.00px" viewBox="0 0 1024 1024" version="1.1" xmlns="http://www.w3.org/2000/svg"><path fill="#333333" d="M242.38 267.94c78.59 0 138.07 21.89 179.11 66.31 38.28 41 57.4 100.49 57.4 177.75 0 76.56-19.82 136-58.77 178.45-41 43.72-100.52 65.61-179.11 65.61H64.63V267.94zM139.12 692.48h88.21c61.54 0 107.33-15.05 136-44.45 28-29.37 42.38-74.49 42.38-136 0-62.88-14.35-108-41.68-136.73-28.73-29.4-73.82-43.75-135.36-43.75h-89.55zM770.71 267.94c49.23 0 88.87 10.95 117.57 33.51 30.07 24.6 45.12 59.47 45.12 106 0 26-6.84 48.52-20.52 68.35q-23.58 32.8-63.58 43.04v1.37c43.75 9.58 67.68 38.28 73.15 86.14l8.21 77.93q4.1 45.1 28.7 71.79h-80.65c-11.61-15.05-18.46-36.91-21.19-64.28l-6.14-60.84c-2.74-27.33-11.61-46.49-26-58.77-15-12.31-36.21-17.79-64.24-17.79h-132v201.67h-74.46V267.94zM629.17 490.81h132c32.81 0 57.44-7.51 73.82-21.19 15.72-13.68 23.93-33.51 23.93-59.47 0-27.33-8.21-47.19-23.23-59.47-16.42-13-41-19.16-75.22-19.16h-131.3z"  /></svg>