<?xml version="1.0" standalone="no"?><!DOCTYPE svg PUBLIC "-//W3C//DTD SVG 1.1//EN" "http://www.w3.org/Graphics/SVG/1.1/DTD/svg11.dtd"><svg class="icon" width="200px" height="200.00px" viewBox="0 0 1024 1024" version="1.1" xmlns="http://www.w3.org/2000/svg"><path d="M192.67 851.61c56.55 56.55 148.74 56.55 205.28 0L859.5 390c56.55-56.55 56.55-148.75 0-205.31l-18.44-18.44c-56.55-56.55-148.74-56.55-205.28 0L174.23 627.86c-56.55 56.55-56.55 148.76 0 205.31z m-44.34 44.25l-20.08-20.08c-83.44-83.45-83.44-219.12 0-302.58l444.88-444.95c83.45-83.45 219.1-83.45 302.54 0l20.08 20.08c83.44 83.45 83.44 219.12 0 302.58L450.87 895.86a214.35 214.35 0 0 1-302.54 0z" fill="#3FB1FA" /><path d="M600 429.34a38.42 38.42 0 0 1-27.24-11.14 38.87 38.87 0 0 1 0-54.48l88.54-88.54a38.53 38.53 0 0 1 54.48 54.48l-88.56 88.54A38.42 38.42 0 0 1 600 429.34z" fill="#EE777B" /><path d="M634.13 630.25c-5.73 0-8.55 0.23-13.5-2.37-5.6-2.95-5-3.36-24.58-20.28-9-7.78-24.72-22.29-51.48-48.15-85-82.12-150.22-128.69-151.28-129.2-16.47-8.21-22.84-27.2-14.34-43.11a33.4 33.4 0 0 1 44.62-13.86c4.25 2.05 75.32 51.7 168.27 141 26.45 25.56 42.93 41.21 53 50.63 25.17 23.49 25.66 30.26 26.27 34.6 2 14.24-11.63 25.45-24.25 31.75-5.3 2.04-12.73-1.01-12.73-1.01z" fill="#3FB1FA" /></svg>