<?xml version="1.0" standalone="no"?><!DOCTYPE svg PUBLIC "-//W3C//DTD SVG 1.1//EN" "http://www.w3.org/Graphics/SVG/1.1/DTD/svg11.dtd"><svg class="icon" width="200px" height="200.00px" viewBox="0 0 1024 1024" version="1.1" xmlns="http://www.w3.org/2000/svg"><path d="M658.09 513.81l-28.51-95.45a26.65 26.65 0 0 0-25.46-19.2h-0.62a27.6 27.6 0 0 0-7.55 1.07 27 27 0 0 0-19.35 26.4L535.39 577 497 308.45l0.1-0.41a25.59 25.59 0 0 0-6.19-24 24.39 24.39 0 0 0-23.69-10 24 24 0 0 0-20 19.65c-0.17 0.53-0.34 1.06-0.48 1.6L390 518.94H175.64a25 25 0 1 0 0 50h234.94a25.91 25.91 0 0 0 25.27-19.35l29.95-118 38.45 269.09a24.42 24.42 0 0 0 24 20.29 13.42 13.42 0 0 0 3.72-0.37 24 24 0 0 0 19.16-16.32 25.5 25.5 0 0 0 6-10.31l47.06-171.73 6.33 21.2a26.72 26.72 0 0 0 2.25 5.22c3.13 8.53 10 14.45 18.12 14.45H864.3c11 0 19.91-11 19.91-24.64s-8.88-24.64-19.91-24.64z" fill="#EE777B" /><path d="M204.33 547.19l293.41 281.1a25.93 25.93 0 0 0 36.9 0L821 554.39l0.63-0.63c3.26-2.9 6-5.56 8.79-8.34a216.45 216.45 0 0 0 0-304.55 211.71 211.71 0 0 0-151.22-63.06c-57.1 0-110.81 33.46-151.22 74.15a16.11 16.11 0 0 1-17.57 3.66 15.18 15.18 0 0 1-6.53-4.3c-2.13-2.4-4.27-4.68-6.53-7-83.33-83.91-219.11-95-302.44-11.09a216.45 216.45 0 0 0 0 304.55c2.26 2.28 4.52 4.42 6.9 6.57a17.36 17.36 0 0 1 2.51 2.78M516.47 914a63.59 63.59 0 0 1-45.08-18.73l-319.61-322a23.65 23.65 0 0 1-1.63-1.91c-2-1.91-4.21-4-6.25-6-104-104.73-104-275.22 0-379.94 102.64-103.36 269-104.73 373.24-4a265.31 265.31 0 0 1 364.28 12c50.37 50.72 78.07 118.13 78.07 189.9s-27.7 139.18-78.07 189.9c-3.26 3.28-6.65 6.56-10.59 10l-309.29 312A63.36 63.36 0 0 1 516.47 914" fill="#3FB1FA" /></svg>