<?xml version="1.0" standalone="no"?><!DOCTYPE svg PUBLIC "-//W3C//DTD SVG 1.1//EN" "http://www.w3.org/Graphics/SVG/1.1/DTD/svg11.dtd"><svg class="icon" width="200px" height="200.00px" viewBox="0 0 1024 1024" version="1.1" xmlns="http://www.w3.org/2000/svg"><path d="M214.67 726.3C91.46 525.1 163.12 285.14 332.86 173.71c171.46-112.75 401.8-79 532.5 79.41 131.57 159.43 122.93 392.26-20.49 540-51.53 53.24-113 90-184.83 109.27Q553 931.31 446.3 901.57c-71.39-19.7-132.43-57.35-184.19-111.43-15.53 12.12-30.63 23.8-45.72 35.47-28.47 22.11-56.94 44.39-85.62 66.39-19 14.73-42.92 12.13-56.72-5.84-13.8-17.74-10.79-42 8-56.69 41.63-32.66 83.47-64.9 125.09-97.58a56.8 56.8 0 0 0 7.55-5.63zM555 181.68c-179.36-0.87-327.88 146.5-329.17 326.93-1.32 183 143.44 330 323.48 333.08 180.3 3.07 332.25-139.53 334.69-325.18 2.6-186.13-143.7-333.75-329-334.86z" fill="#3FB1FA" /><path d="M604.71 717c-26.63 1.29-44.67-13.33-46.61-34.19-2.14-22.57 12-40.63 34.58-43.43 47.87-6 95.57-11.82 143.44-17.42 22.94-2.58 41.89 13.56 44 36.94 1.93 20.86-15.25 39.56-37.15 41.93-33.72 3.45-67.65 7.76-101.36 11.82-14 1.52-27.69 3.23-36.9 4.31z m28.92-164.1c2.78-7.1 4.5-14.84 8.36-21.28q37.41-60.09 75.8-119.56c12.24-18.92 35.65-24.29 54.34-12.9 18.9 11.61 24.7 35.47 12.67 54.83q-38.28 61-77.32 121.49c-9.88 15.49-27.93 21.29-45.1 15.7-16.76-5.16-27.28-20-28.77-38.28z m-225-109.64c-3.22 31.83-6.22 62.14-9.24 92.68-1.29 12.9-2.79 25.58-3.87 38.48-1.93 21.08-21.94 37.85-42.31 35.48-22.76-2.58-38.66-22.14-36.29-44.07q6.44-62.9 12.46-125.79c1.93-20 16.54-35.7 35.65-37.62 19.54-2 36.51 9.44 42.09 28.59 1.08 4.3 1.08 9 1.51 12.25z m82.47-37.85c-17.61-0.86-32.43-11.18-37.8-27.09-5.79-16.77-1.08-34.39 13.32-44.52 26.63-18.27 53.69-36.34 81.18-53.54 17.39-11 40.37-4.73 51.75 12 11.6 17.2 8.81 40.64-8 52.68-27.06 19.15-55.2 37.2-83.11 55-4.9 3.19-11.56 3.83-17.35 5.34z m16.11 106.65c1.51-5.8 2.57-12 4.73-17.63q12.61-34.3 25.77-68.39c8.38-22 30.5-32.25 51.55-24.29 20.62 7.74 30.5 29.89 22.55 51.6q-13.2 36.65-27.32 72.9c-7.09 18.06-25.55 28.8-42.74 25.37-20.62-4.3-33.72-19.56-34.58-39.56zM450 749.22c-33.72-0.22-52.62-26.24-43.82-51.6 9-25.8 18.68-51.39 28.77-76.77a38.7 38.7 0 0 1 49.18-22.14c20.62 7.74 31.79 28.8 24.7 49.24q-13.65 39.06-29.2 77.4c-6.4 16.11-19.5 23.65-29.63 23.86z" fill="#EE777B" /></svg>