<?xml version="1.0" standalone="no"?><!DOCTYPE svg PUBLIC "-//W3C//DTD SVG 1.1//EN" "http://www.w3.org/Graphics/SVG/1.1/DTD/svg11.dtd"><svg class="icon" width="200px" height="200.00px" viewBox="0 0 1024 1024" version="1.1" xmlns="http://www.w3.org/2000/svg"><path d="M365.34 435.71c23 0 41.56 17.43 41.56 38.93v273.29H271.4V474.64c0-21.5 18.61-38.93 41.56-38.93z m103.36 27.55c0.64-49.1-41.33-89.39-93.74-90h-10.49c4.24-1.35 11.62-7.22 12-17.93-0.57-9.3-3.83-14.48-8.47-17.62v-247c0-13.92-12-25.21-26.91-25.21s-26.91 11.29-26.91 25.21v248.9c-3.9 3.42-6.31 8.19-6.31 15.38 0.14 6.28 3.81 14.13 8.86 18.27h-12.82c-52.51 0.6-94.66 40.8-94.33 90V865.8c-1.93 49.37 39.23 90.86 91.93 92.67l2.4 0.05h70.46c52.42-0.26 94.69-40.27 94.42-89.37q0-1.68-0.09-3.36z" fill="#EE777B" /><path d="M658.66 435.71H711c23 0 41.56 17.43 41.56 38.93v353.55H617.1V474.64c0-21.5 18.61-38.93 41.56-38.93M814.4 865.8V463.26c0.64-49.1-41.33-89.39-93.74-90h-10.49c4.24-1.35 11.62-7.22 12-17.93-0.57-9.3-3.83-14.48-8.47-17.62v-247c0-13.92-12-25.21-26.91-25.21s-26.91 11.29-26.91 25.21v248.9c-3.9 3.42-6.31 8.19-6.31 15.38 0.14 6.28 3.81 14.13 8.86 18.27h-12.82c-52.51 0.6-94.66 40.8-94.33 90V865.8c-1.93 49.37 39.23 90.86 91.93 92.67l2.4 0.05h70.46c52.42-0.26 94.69-40.27 94.42-89.37q0-1.68-0.09-3.36" fill="#3FB1FA" /></svg>