<?xml version="1.0" standalone="no"?><!DOCTYPE svg PUBLIC "-//W3C//DTD SVG 1.1//EN" "http://www.w3.org/Graphics/SVG/1.1/DTD/svg11.dtd"><svg class="icon" width="200px" height="200.00px" viewBox="0 0 1024 1024" version="1.1" xmlns="http://www.w3.org/2000/svg"><path d="M529.44 513.65a23.73 23.73 0 0 1-23.72-23.72V252.75a23.72 23.72 0 0 1 47.45 0v237.11a23.82 23.82 0 0 1-23.73 23.79z" fill="#EE777B" /><path d="M624.21 323.92H434.55a23.72 23.72 0 0 1 0-47.45h189.72a23.72 23.72 0 1 1-0.06 47.45z m-94.83-47.45A23.69 23.69 0 0 1 512.64 236l94.83-94.83A23.71 23.71 0 0 1 641 174.72l-94.83 94.83a23.65 23.65 0 0 1-16.79 6.93z" fill="#EE777B" /><path d="M928.67 616.17h-72.92v260.41a31.25 31.25 0 0 1-62.5 0V616.17H126.58v62.5h177.09a31.25 31.25 0 0 1 0 62.5H126.58v135.41a31.25 31.25 0 0 1-62.5 0V147.42a31.25 31.25 0 0 1 62.5 0v230.33a307 307 0 0 1 220.5 175.92h581.59a31.25 31.25 0 0 1 0 62.5zM126.58 452.42v101.25h141.67a307.19 307.19 0 0 0-141.67-101.25z" fill="#3FB1FA" /><path d="M527.62 276.42a23.91 23.91 0 0 1-16.8-6.92L416 174.6a23.71 23.71 0 1 1 33.54-33.54l94.83 94.83a23.75 23.75 0 0 1-16.74 40.52z m94.65 142.34H432.61a23.72 23.72 0 0 1 0-47.45h189.72a23.72 23.72 0 1 1-0.06 47.45z" fill="#EE777B" /></svg>