<?xml version="1.0" standalone="no"?><!DOCTYPE svg PUBLIC "-//W3C//DTD SVG 1.1//EN" "http://www.w3.org/Graphics/SVG/1.1/DTD/svg11.dtd"><svg class="icon" width="200px" height="200.00px" viewBox="0 0 1024 1024" version="1.1" xmlns="http://www.w3.org/2000/svg"><path d="M243.86 448.73c36.42 4.48 72.83 22.75 100.27 54.64 21.29 22.75 34.92 54.63 37.87 89.52 42.57-45.5 83.47-86.52 119.89-122.9 30.43-30.39 57.7-57.63 83.47-86.53 13.63-15.11 10.64-48.49-7.65-75.9-10.64-15.11-41.07-48.49-91.12-27.24-72.67 35-169.78 104.8-242.77 168.4m-79 78.89c-9.15 13.62-15.13 30.39-15.13 47a99.36 99.36 0 0 0 28.93 75.9c37.91 42.52 86.63 53.14 124.55 27.24 1.5-3 4.49-4.48 6.15-7.64 27.27-39.36 18.29-103.13-7.65-128.88-37.91-44-94.12-50-135.19-16.61-0.17 1.49-0.17 3-1.66 3m94.28 221.55c-42.57 0-86.63-19.76-121.55-59.12-30.37-31.9-45.55-72.75-44.01-116.76 1.5-37.87 16.63-74.24 44.06-98.65C210.44 394.26 354.77 279 465.68 230.51c59.2-25.74 121.55-7.64 159.47 47 34.92 50 34.92 110.77 1.5 145.65-25.77 27.24-54.71 56.13-85 86.53-59.17 60.61-127.51 127.37-198.85 209.25l-4.49 4.48c-24.61 16.61-51.88 25.74-79.15 25.74" fill="#3FB1FA" /><path d="M216.47 551.66c-11.47 0-19.71 3.17-27.78 9.69-9.86 8.11-13.08 21-13.08 35.42a72.94 72.94 0 0 0 21.33 45.12c22.94 25.73 62.18 33.84 81.9 16 19.71-17.62 16.31-54.63-8.24-80.54-14.7-16-36-25.73-54.12-25.73m34.41 141.7c-26.16 0-53.94-12.87-73.65-33.84-16.31-17.62-26.16-38.6-27.78-61.15s6.63-41.77 21.33-56.4c11.47-11.28 27.78-16 44.26-16 26.16 0 53.94 12.87 73.65 33.84 34.41 37 37.63 90.06 6.63 117.55-11.65 11.1-26.34 16-44.44 16" fill="#EE777B" /><path d="M595.26 296.25c-4.56 0-9.29-1.5-13.85-6.17-6.25-7.67-4.56-18.35 3-22.85 6.25-4.5 13.85-10.67 23.13-18.35 23.13-16.68 52.34-39.53 69.4-53.37 7.77-6.17 18.57-4.5 23.13 1.5 6.25 7.67 4.56 18.34-1.52 22.85-16.88 13.68-46.26 36.52-69.4 53.37-9.29 7.67-16.89 13.68-23.13 18.35-3.16 3-6.2 4.67-10.76 4.67zM226.67 943.5a265.23 265.23 0 0 1-50.82-4.5c-69.4-10.68-95.57-47.2-104.85-74.55-23.13-70 27.69-172.11 144.87-287.85 10.81-10.67 29.38-10.67 40 0 10.81 10.67 10.81 29 0 39.53-115.66 112.74-143.35 193.46-131 230 6.25 19.85 26.17 32 60.11 38C288.3 902.47 450.22 847.6 666 721.19c114.14-62.37 219-64 268.3-6.17 43.23 51.7 26.17 132.42-46.26 216.31-9.29 12.18-27.69 13.68-40 3-12.33-9.17-13.85-27.35-3-39.53 52.34-60.87 69.4-117.24 44.75-146.26-24.65-30.52-100.3-32-195.86 19.85C495 885.63 340.81 943.5 226.67 943.5z" fill="#3FB1FA" /><path d="M696.08 246.88c-13.07 0-27.76-5.89-36-15.92-14.68-17.51-9.85-42.18 9.85-55.24l134.14-88.66c19.7-13.05 47.46-8.76 62.15 8.76s9.85 42.19-9.85 55.24l-134.14 88.66c-8.06 4.14-17.91 7.16-26.15 7.16" fill="#3FB1FA" /></svg>