<?xml version="1.0" standalone="no"?><!DOCTYPE svg PUBLIC "-//W3C//DTD SVG 1.1//EN" "http://www.w3.org/Graphics/SVG/1.1/DTD/svg11.dtd"><svg class="icon" width="200px" height="200.00px" viewBox="0 0 1024 1024" version="1.1" xmlns="http://www.w3.org/2000/svg"><path d="M892.25 181.49c0-24.34-20-44.07-44.74-44.07h-671c-24.71 0-44.74 19.73-44.74 44.07v661c0 24.34 20 44.07 44.74 44.07h671c24.71 0 44.74-19.73 44.74-44.07zM868 950.37H156c-49.15 0-89-39.25-89-87.67V161.3c0-48.42 39.85-87.67 89-87.67h712c49.15 0 89 39.25 89 87.67v701.4c0 48.42-39.83 87.67-89 87.67z" fill="#3FB1FA" /><path d="M261.38 349.73h107.75v-80.15H261.38z m119.35 57.33H249.79a43.47 43.47 0 0 1-43.65-43.29V255.54a43.47 43.47 0 0 1 43.65-43.29h130.94a43.47 43.47 0 0 1 43.65 43.29v108.23a43.47 43.47 0 0 1-43.65 43.29z m437.67-29c0 16-12.9 29-31 29H503.71c-18.08 0-29.9-13-29.9-29s11.82-29 29.9-29h283.71c18.08 0.07 30.98 13.04 30.98 29.04z m-33.92-106H631.71c-18.08 0-32.74-13.39-32.74-29.92s14.66-29.92 32.74-29.92h152.77c18.08 0 32.74 13.39 32.74 29.92s-14.66 29.95-32.74 29.95z" fill="#EE777B" /><path d="M468.06 824.51h-1.75A28.8 28.8 0 0 1 442.72 809L359 650.52l-17.52 54.28a29 29 0 0 1-27.39 20.39h-77c-15.9 1.21-29.73-11.17-30.9-27.64s10.78-30.8 26.69-32a27.86 27.86 0 0 1 4.21 0h56.18l31.91-98.88c5-15.67 21.39-24.14 36.51-18.92a29.14 29.14 0 0 1 16.22 14.05l93.42 176.9 69.44-100.43a27.63 27.63 0 0 1 24-12.48 28.63 28.63 0 0 1 23.56 13.28l29.93 46.35h169.16c15.9-1.21 29.73 11.17 30.9 27.64s-10.78 30.8-26.69 32a27.87 27.87 0 0 1-4.21 0H602.84a28.61 28.61 0 0 1-24-13.28l-15.3-23.68-71.9 104a28.56 28.56 0 0 1-23.56 12.42" fill="#3FB1FA" /></svg>