<?xml version="1.0" standalone="no"?><!DOCTYPE svg PUBLIC "-//W3C//DTD SVG 1.1//EN" "http://www.w3.org/Graphics/SVG/1.1/DTD/svg11.dtd"><svg class="icon" width="200px" height="200.00px" viewBox="0 0 1024 1024" version="1.1" xmlns="http://www.w3.org/2000/svg"><path d="M840.68 730.4c0-73.65-61.65-133.57-137.44-133.57h-8.87c-75.78 0-137.43 59.92-137.43 133.57v94.79c0 40.38-33.81 73.25-75.37 73.25h-8.86c-41.56 0-75.37-32.87-75.37-73.25V647.63H423V620.7c154.94-14 186.74-198 210-333.22 1.83-10.64 3.63-21.09 5.44-31.24 10.89-60.82 2.8-107.92-24-140-29.49-35.24-69.59-37.57-74.07-37.72h-47.9a44 44 0 0 0-31.58-13.26c-24.1 0-43.65 19-43.65 42.42s19.55 42.41 43.65 42.41a44 44 0 0 0 29.39-11.25h48.21a44.76 44.76 0 0 1 27.82 15.47c14.79 17.68 18.61 49.35 11.05 91.61-1.84 10.26-3.66 20.83-5.52 31.6C545.74 429 517.8 546.63 423 560v-24.38H306.64v25c-99-9.68-127.5-128.82-154.08-283.09-1.85-10.78-3.68-21.36-5.52-31.63-7.45-41.64-3.84-73.06 10.44-90.87a44.7 44.7 0 0 1 28.45-16.21h48.19a44 44 0 0 0 29.39 11.24c24.11 0 43.64-19 43.64-42.41s-19.53-42.42-43.64-42.42a44 44 0 0 0-31.57 13.27h-47.89c-4.48 0.14-44.58 2.43-74.1 37.72-26.83 32.08-34.92 79.18-24 140 1.82 10.16 3.62 20.61 5.46 31.26 23.49 136.75 55.75 323.36 215.23 333.62v26.52h28.64v177.57c0 73.65 61.65 133.57 137.44 133.57h8.86c75.79 0 137.44-59.92 137.44-133.57V730.4c0-40.39 33.81-73.25 75.37-73.25h8.87c41.55 0 75.36 32.86 75.36 73.25v36.67c-39.9 12.94 101 11.41 62.07-0.53z" fill="#3FB1FA" /><path d="M831.11 958.76A111.69 111.69 0 1 1 942.8 847.07a111.69 111.69 0 0 1-111.69 111.69z m0-63.82a47.87 47.87 0 1 0-47.87-47.87 47.87 47.87 0 0 0 47.87 47.87z" fill="#EE777B" /></svg>