<?xml version="1.0" standalone="no"?><!DOCTYPE svg PUBLIC "-//W3C//DTD SVG 1.1//EN" "http://www.w3.org/Graphics/SVG/1.1/DTD/svg11.dtd"><svg class="icon" width="200px" height="200.00px" viewBox="0 0 1024 1024" version="1.1" xmlns="http://www.w3.org/2000/svg">    <defs>        <linearGradient id="line-grad" x1="0%" y1="0%" x2="0%" y2="100%">            <stop offset="0%" style="stop-color: #3CB5F6;stop-opacity:1" />            <stop offset="100%" style="stop-color:#0C83E7 ;stop-opacity:1" />        </linearGradient>    </defs>    <path fill="transparent" class="bg" d="M729.14 503.76c-12.74-9.32-17.17-13.48-20.49-15.94A262.28 262.28 0 0 0 766.42 323c0-143-113.29-259.26-252.52-259.26S261.39 180 261.39 323a262.24 262.24 0 0 0 57.37 164.3 51.5 51.5 0 0 1-10.46 8.61C200.48 567.54 131 693.64 131 830.34c0 120.58 291.66 130 381 130s381-9.36 381-130C893 698.9 829.19 577 729.14 503.76"  />    <path fill="#999" class="border"  d="M512 887.83c-210.92 0-304.56-45.13-304.56-62.28 0-117.8 64.25-225.72 161.71-280.15 2-1.12 3.8-2.1 5.49-3a236.43 236.43 0 0 0 278.1 0.19c4.45 2.4 9.08 5.18 14.88 8.83 90.21 56.68 149 161 149 274.1 0 17.15-93.65 62.28-304.56 62.28m5.16-752.51c102.56 0 186 85.67 186 191s-83.45 191-186 191-186-85.66-186-191 83.45-191 186-191m212 368.45c-12.74-9.32-17.17-13.48-20.49-15.94A262.28 262.28 0 0 0 766.42 323c0-143-113.29-259.26-252.52-259.26S261.39 180 261.39 323a262.24 262.24 0 0 0 57.37 164.3 51.5 51.5 0 0 1-10.46 8.61C200.48 567.54 131 693.64 131 830.34c0 120.58 291.66 130 381 130s381-9.36 381-130C893 698.9 829.19 577 729.14 503.76"  /></svg>