<?xml version="1.0" standalone="no"?><!DOCTYPE svg PUBLIC "-//W3C//DTD SVG 1.1//EN" "http://www.w3.org/Graphics/SVG/1.1/DTD/svg11.dtd"><svg class="icon" width="200px" height="200.00px" viewBox="0 0 1024 1024" version="1.1" xmlns="http://www.w3.org/2000/svg"><path fill="#333333" d="M729.14 503.76c-12.74-9.32-17.17-13.48-20.49-15.94A262.28 262.28 0 0 0 766.42 323c0-143-113.29-259.26-252.52-259.26S261.39 180 261.39 323a262.24 262.24 0 0 0 57.37 164.3 51.5 51.5 0 0 1-10.46 8.61C200.48 567.54 131 693.64 131 830.34c0 120.58 291.66 130 381 130s381-9.36 381-130C893 698.9 829.19 577 729.14 503.76"  /></svg>