<?xml version="1.0" standalone="no"?><!DOCTYPE svg PUBLIC "-//W3C//DTD SVG 1.1//EN" "http://www.w3.org/Graphics/SVG/1.1/DTD/svg11.dtd"><svg class="icon" width="200px" height="200.00px" viewBox="0 0 1024 1024" version="1.1" xmlns="http://www.w3.org/2000/svg"><path fill="#333333" d="M142.37 297.76L291.81 641h1.79l148.82-343.24h77.43v428.48h-65.42V420.19H452L320.61 726.24h-56.43L132.76 420.19h-2.4v306.05H65V297.76zM793.39 297.76c43.21 0 78 9.61 103.24 29.41 26.37 21.59 39.58 52.21 39.58 93 0 22.79-6 42.6-18 60Q897.54 509 862.41 518v1.2c38.38 8.41 59.41 33.6 64.22 75.61l7.21 68.41q3.56 39.59 25.19 63h-70.84C878 713 872 693.84 869.62 669.82l-5.42-53.41c-2.4-24-10.2-40.81-22.82-51.59-13.19-10.82-31.79-15.61-56.38-15.61H669.17v177h-65.41V297.76zM669.17 493.4H785c28.8 0 50.42-6.59 64.83-18.6 13.77-12 21-29.41 21-52.21 0-24-7.21-41.42-20.39-52.21-14.41-11.4-36-16.82-66-16.82H669.17z"  /></svg>