<?xml version="1.0" standalone="no"?><!DOCTYPE svg PUBLIC "-//W3C//DTD SVG 1.1//EN" "http://www.w3.org/Graphics/SVG/1.1/DTD/svg11.dtd"><svg class="icon" width="200px" height="200.00px" viewBox="0 0 1024 1024" version="1.1" xmlns="http://www.w3.org/2000/svg"><path d="M511.4 63.8c-247.4 0-448 200.6-448 448s200.6 448 448 448 448-200.6 448-448-200.6-448-448-448z m0 829.3c-210.6 0-381.3-170.7-381.3-381.3s170.7-381.3 381.3-381.3 381.3 170.7 381.3 381.3S722 893.1 511.4 893.1z" fill="#3FB1FA" /><path d="M298.8 381.6v-50.8h99.7L374 295l73.4-7.5c5 5 11.9 13.8 20.7 26.3 5 7.5 8.8 13.2 11.3 16.9h67.7c10-15.1 18.8-29.5 26.3-43.3l75.3 7.5-24.5 35.8h99.7v50.8h-52.7l37.6 28.2c-15.1 16.3-30.8 32-47 47h75.3v52.7H283.7v-52.7H359c-2.5-2.5-6.3-6.9-11.3-13.2-13.8-16.3-24.5-28.2-32-35.8l33.9-26.3h-50.8zM330.7 741V532.1h359.4V741h-67.7v-17H398.5v17h-67.8z m79.1-312.4l-37.6 28.2h52.7v-75.3h-58.3c3.8 5 9.4 11.3 16.9 18.8 12.5 12.6 21.3 22 26.3 28.3zM398.5 581v28.2h223.9V581H398.5z m0 69.7v28.2h223.9v-28.2H398.5z m90.3-269.1v75.3h43.3v-75.3h-43.3z m124.2 47c20.1-20.1 34.5-35.8 43.3-47H598v75.3h47l-32-28.3z" fill="#EE777B" /></svg>