<?xml version="1.0" standalone="no"?><!DOCTYPE svg PUBLIC "-//W3C//DTD SVG 1.1//EN" "http://www.w3.org/Graphics/SVG/1.1/DTD/svg11.dtd"><svg class="icon" width="200px" height="200.00px" viewBox="0 0 1024 1024" version="1.1" xmlns="http://www.w3.org/2000/svg"><path fill="#333333" d="M852 243.6H699.88V100.45a35.89 35.89 0 0 0-35.79-35.79H359.91a35.89 35.89 0 0 0-35.79 35.79V243.6H172c-59 0-107.34 48.31-107.34 107.4v501c0 59 48.34 107.34 107.34 107.34h680c59 0 107.36-48.31 107.36-107.36V351C959.34 291.91 911 243.6 852 243.6zM395.69 136.24h232.62V243.6H395.69z m261.16 499.31H546.08v110.77a34.08 34.08 0 1 1-68.17 0V635.55H367.15a34.08 34.08 0 0 1 0-68.17h110.77V456.62a34.08 34.08 0 0 1 68.17 0v110.76h110.76a34.08 34.08 0 0 1 0 68.17z"  /></svg>