<?xml version="1.0" standalone="no"?><!DOCTYPE svg PUBLIC "-//W3C//DTD SVG 1.1//EN" "http://www.w3.org/Graphics/SVG/1.1/DTD/svg11.dtd"><svg class="icon" width="200px" height="200.00px" viewBox="0 0 1024 1024" version="1.1" xmlns="http://www.w3.org/2000/svg"><path d="M509.84 892.37c-210.25 0-380.69-170.44-380.69-380.69S299.59 131 509.84 131s380.68 170.43 380.68 380.68-170.44 380.69-380.68 380.69m0-828c-247 0-447.31 200.27-447.31 447.31S262.8 959 509.84 959s447.3-200.28 447.3-447.32S756.88 64.37 509.84 64.37" fill="#3FB1FA" /><path d="M387.24 647.37H620v-95.45H387.24z m-73.1 88V486.41h144.27V288h76.95v65.51h198.13v63.63H535.36v69.25H695v248.94h-75v-26.2H387.24v26.2z" fill="#EE777B" /></svg>