<?xml version="1.0" standalone="no"?><!DOCTYPE svg PUBLIC "-//W3C//DTD SVG 1.1//EN" "http://www.w3.org/Graphics/SVG/1.1/DTD/svg11.dtd"><svg class="icon" width="200px" height="200.00px" viewBox="0 0 1024 1024" version="1.1" xmlns="http://www.w3.org/2000/svg"><path d="M682.38 779.29a92.8 92.8 0 0 0 185.6 0c0-50.22-41.49-92.8-92.8-92.8a92.72 92.72 0 0 0-92.8 92.64q-0.01 0.08 0 0.16zM565 424l187.45 202a154.89 154.89 0 0 1 22.44-1.63c85.2 0 154.67 69.47 154.67 154.67-1.31 85.2-69.47 154.67-154.67 154.67s-154.59-69.4-154.59-154.6a154.61 154.61 0 0 1 62.83-124.32L515.57 474.12 334.76 657.29l-0.17 0.17a37.1 37.1 0 0 1-52.47 0 37.58 37.58 0 0 1-0.17-53l182.78-185.15-259-268a36.57 36.57 0 0 1 1-50.73 33.93 33.93 0 0 1 48 0q0.45 0.45 0.88 0.92l258.63 267.66L778 101.36l0.17-0.17a37.1 37.1 0 0 1 52.47 0 37.58 37.58 0 0 1 0.17 53z" fill="#3FB1FA" /><path d="M94.44 776.28c0-85.2 69.47-154.67 154.67-154.67s154.67 69.47 154.67 154.67c-1.31 85.2-69.47 154.67-154.67 154.67S94.44 861.48 94.44 776.28z m66.29 0a88.38 88.38 0 0 0 176.76 0c0-47.83-39.51-88.38-88.38-88.38a88.31 88.31 0 0 0-88.38 88.24s-0.01 0.09 0 0.14z" fill="#EE777B" /></svg>