<?xml version="1.0" standalone="no"?><!DOCTYPE svg PUBLIC "-//W3C//DTD SVG 1.1//EN" "http://www.w3.org/Graphics/SVG/1.1/DTD/svg11.dtd"><svg class="icon" width="200px" height="200.00px" viewBox="0 0 1024 1024" version="1.1" xmlns="http://www.w3.org/2000/svg"><path d="M772 63H252a118.31 118.31 0 0 0-118.14 118.17v661.66A118.31 118.31 0 0 0 252 961h237.65c13 0 23.18-15.93 23.18-29.06s-10.06-29.5-23.18-29.5H263.19a70.92 70.92 0 0 1-70.86-70.86V192a70.92 70.92 0 0 1 70.86-70.86h508.68c39.09 0 59 31.77 59 70.86v361.79c0 13 17.2 23.65 30.33 23.65s28.8-10.52 28.8-23.65V181.17C890.13 116 837.12 63 772 63zM468.91 760.45c-14.93 0-27.06 11.73-27.06 26.26S454 813 468.91 813h329l-97.32 94.81a25.72 25.72 0 0 0 0 37.08 27.61 27.61 0 0 0 38.18 0l143.45-139.44 0.1-0.1c0.1-0.1 0.1-0.1 0.1-0.2a26.17 26.17 0 0 0 7.22-13.15c-0.1 0.1-0.1 0.3-0.2 0.5a25.2 25.2 0 0 0 0.7-5.51v-0.7a26.19 26.19 0 0 0-1.8-8.92 6.89 6.89 0 0 1-0.3-0.8 27.14 27.14 0 0 0-6.21-8.72c0.4 0.4 0.4 0.3 0.4 0.3L738.7 628.66a26.89 26.89 0 0 0-19-7.72h-0.1a27.5 27.5 0 0 0-19 7.72 25.72 25.72 0 0 0 0 37.08l97.42 94.71h-329z" fill="#3FB1FA" /><path d="M535.46 455.78h71q28.17 0 28.18 28.18 0 27.68-28.18 27.67h-71V570q0 19.63-5.54 26.17t-24.15 6.55q-16.11 0-23.15-6.55t-7-26.17v-58.36h-69.99q-28.19 0-28.18-27.67 0-28.17 27.18-28.18h70.95v-25.68h-69.95q-28.19 0-28.18-27.67 0-28.17 27.18-28.18h39.75q-15.1-24.66-30.7-50.08-15.37-25-30.7-50.07Q374.93 261 377.2 251t12.33-17.11q11.57-8 21.38-6.55t18.87 16.61l76.49 127.81q18.56-31.61 37.24-63.16t37.24-63.15q5.55-9.06 10.32-13.34a19.07 19.07 0 0 1 9.81-5 17.69 17.69 0 0 1 10.06 1.52 84.8 84.8 0 0 1 10.57 5.79q12.58 8.05 13.59 16.86t-7.1 22.84l-60.34 100.14h38.75q28.17 0 28.18 28.18 0 27.68-28.18 27.67h-71v25.67z" fill="#EE777B" /></svg>