<?xml version="1.0" standalone="no"?><!DOCTYPE svg PUBLIC "-//W3C//DTD SVG 1.1//EN" "http://www.w3.org/Graphics/SVG/1.1/DTD/svg11.dtd"><svg class="icon" width="200px" height="200.00px" viewBox="0 0 1024 1024" version="1.1" xmlns="http://www.w3.org/2000/svg"><path d="M933.16 904.43h-76.42v-455a68.94 68.94 0 0 0-68.87-68.85h-71.68V195a26.72 26.72 0 0 0-13.08-22.89L522.79 66A26.59 26.59 0 0 0 496 66L315.71 172.11A26.38 26.38 0 0 0 302.63 195v185.52h-66.15a68.92 68.92 0 0 0-68.87 68.85v455.06H91.15c-14.67 0-26.65 14.47-26.65 29.1s12 28.07 26.65 28.07h842c14.67 0 26.34-13.44 26.34-28.07s-11.7-29.1-26.33-29.1z m-572-669.31A40.75 40.75 0 0 1 381.35 200l107.3-63.1a41 41 0 0 1 41.48 0l107.3 63.1a40.91 40.91 0 0 1 20.2 35.17v140.76H361.15zM233.68 904.43V486.79a42.46 42.46 0 0 1 42.38-42.37h471.12a42.46 42.46 0 0 1 42.38 42.37v417.64z" fill="#3FB1FA" /><path d="M581 237.46h-36.91V200.6a26.33 26.33 0 0 0-52.65 0v36.86h-36.86a26.32 26.32 0 1 0 0 52.64h36.72V327a26.35 26.35 0 1 0 52.7 0v-36.9h37a26.32 26.32 0 1 0 0-52.64z" fill="#EE777B" /><path d="M387.54 539h-74.73c-12.91 0-23.32 8.63-23.32 19.35s10.41 19.35 23.32 19.35h74.73c12.91 0 23.32-8.64 23.32-19.35S400.46 539 387.54 539z m161.82 0h-74.73c-12.91 0-23.32 8.63-23.32 19.35s10.44 19.35 23.32 19.35h74.73c12.91 0 23.32-8.64 23.32-19.35S562.27 539 549.36 539z m161.82 0h-74.72c-12.91 0-23.32 8.63-23.32 19.35s10.44 19.35 23.32 19.35h74.73c12.91 0 23.32-8.64 23.32-19.35S724.06 539 711.18 539z m-323.64 77.37h-74.73c-12.91 0-23.32 8.63-23.32 19.35s10.41 19.35 23.32 19.35h74.73c12.91 0 23.32-8.63 23.32-19.35s-10.4-19.35-23.32-19.35z m161.82 0h-74.73c-12.91 0-23.32 8.63-23.32 19.35s10.44 19.35 23.32 19.35h74.73c12.91 0 23.32-8.63 23.32-19.35s-10.41-19.35-23.32-19.35z m161.82 0h-74.72c-12.91 0-23.32 8.63-23.32 19.35s10.44 19.35 23.32 19.35h74.73c12.91 0 23.32-8.63 23.32-19.35s-10.45-19.35-23.33-19.35zM435.26 732.46h153.53c12.8 0 23.76 11.25 24.34 25.64v109.8H410.86V758.1c0.67-14.39 11.6-25.64 24.4-25.64z" fill="#3FB1FA" /></svg>