<?xml version="1.0" standalone="no"?><!DOCTYPE svg PUBLIC "-//W3C//DTD SVG 1.1//EN" "http://www.w3.org/Graphics/SVG/1.1/DTD/svg11.dtd"><svg class="icon" width="200px" height="200.00px" viewBox="0 0 1024 1024" version="1.1" xmlns="http://www.w3.org/2000/svg"><path d="M946.6 368.42L572.3 94.67c-33.52-33.52-95-33.52-128.49 0L75.67 369C62 377.67 62 394.83 71.83 407.17c5 6.25 13.22 13.12 26.75 9.08 4.75-1.42 26.79-17.52 26.79-17.52v405.44C131 888 198 960.59 287.39 960.59h446.92c89.38 0 156.42-67 156.42-150.84v-415l32.52 20.75c11.17 5.59 23.24 1 32.25-12 5.69-8.19 2.27-29.5-8.9-35.08zM825.48 791.7c0 57.67-47.18 99.61-104.85 99.61H301.22c-57.67 0-104.85-47.18-104.85-104.85V365.8l277.86-209.71c10.49-10.49 21-10.49 31.46-10.49s26.21 0 31.46 5.24l288.33 209.72c0.02 14.07 0 431.14 0 431.14z" fill="#3FB1FA" /><path d="M618.14 578h-83.8v-27.92L607 471.87c5.59-5.59 5.59-16.76 0-27.93-5.59-5.59-16.76-5.59-27.93 0l-67 72.63-67-67c-5.59-5.59-16.76-5.59-27.93 0-5.59 5.59-11.17 16.76 0 27.93l72.63 83.8V578h-78.33q-16.76 0-16.76 16.76t16.76 16.76h83.8v89.38q0 16.76 16.76 16.76t16.76-16.76v-89.37h83.8q16.76 0 16.76-16.76c0-11.17-5.59-16.76-11.17-16.76z" fill="#EE777B" /><path d="M512 354.24c-124 0-224.46 100.5-224.46 224.46S388 803.17 512 803.17s224.46-100.5 224.46-224.46S636 354.24 512 354.24z m0 398a173.53 173.53 0 1 1 173.53-173.53A173.53 173.53 0 0 1 512 752.24z" fill="#EE777B" /></svg>