<?xml version="1.0" standalone="no"?><!DOCTYPE svg PUBLIC "-//W3C//DTD SVG 1.1//EN" "http://www.w3.org/Graphics/SVG/1.1/DTD/svg11.dtd"><svg class="icon" width="200px" height="200.00px" viewBox="0 0 1024 1024" version="1.1" xmlns="http://www.w3.org/2000/svg"><path d="M946.6 368.42L572.3 94.67c-33.52-33.52-95-33.52-128.49 0L75.67 369C62 377.67 62 394.83 71.83 407.17c5 6.25 13.22 13.12 26.75 9.08 4.75-1.42 26.79-17.52 26.79-17.52v405.44C131 888 198 960.59 287.39 960.59h446.92c89.38 0 156.42-67 156.42-150.84v-415l32.52 20.75c11.17 5.59 23.24 1 32.25-12 5.69-8.19 2.27-29.5-8.9-35.08zM825.48 791.7c0 57.67-47.18 99.61-104.85 99.61H301.22c-57.67 0-104.85-47.18-104.85-104.85V365.8l277.86-209.71c10.49-10.49 21-10.49 31.46-10.49s26.21 0 31.46 5.24l288.33 209.72c0.02 14.07 0 431.14 0 431.14z" fill="#3FB1FA" /><path d="M406.7 802a105.62 105.62 0 0 1-74.83-30.9l-9.93-9.93a105.92 105.92 0 0 1 0-149.67L542 391.42a105.92 105.92 0 0 1 149.67 0l9.93 9.93a105.92 105.92 0 0 1 0 149.67L481.53 771.1A105.62 105.62 0 0 1 406.7 802z m-39.13-67.34a65.76 65.76 0 0 0 92.83 0l208.73-208.72a65.76 65.76 0 0 0 0-92.83l-8.34-8.34a65.76 65.76 0 0 0-92.83 0L359.24 633.49a65.76 65.76 0 0 0 0 92.83z" fill="#EE777B" /><path d="M582 665a22.42 22.42 0 0 1-20.3-12.33c-0.36-0.73 17.62 22.11-40.39-35.9s-88.14-72.09-88.87-72.45a22.62 22.62 0 0 1 20.67-40.25c2.9 1.45 37 17.7 100.47 80.79 63.09 63.09 43 40.67 44.5 43.94a22.43 22.43 0 0 1-9.79 30.46 28.73 28.73 0 0 1-10.51 2.18z m-29.82-145.54a21.57 21.57 0 0 1-15.3-6.26 21.83 21.83 0 0 1 0-30.6l49.72-49.72a21.64 21.64 0 1 1 30.6 30.6l-49.72 49.72a21.57 21.57 0 0 1-15.3 6.26z" fill="#EE777B" /></svg>