<?xml version="1.0" standalone="no"?><!DOCTYPE svg PUBLIC "-//W3C//DTD SVG 1.1//EN" "http://www.w3.org/Graphics/SVG/1.1/DTD/svg11.dtd"><svg class="icon" width="200px" height="200.00px" viewBox="0 0 1024 1024" version="1.1" xmlns="http://www.w3.org/2000/svg"><path d="M707.93 635.61c0 31.1-2.36 56.3-36.05 56.3H347.25c-33.7 0-36-25.2-36-56.3V483.3s126.51 21.17 183.1-16.39c138.11-91.71 213.57-70.35 213.57-70.35z" fill="#EE777B" /><path d="M675.4 110.59c-16.55-27.1-45.4-45.13-78.22-45.13H423.59c-32.91 0-61.66 18-78.22 45.12h-16.15c-57.2 0-103.6 46.51-103.6 104v455c0 57.47 46.4 104 103.6 104h121.34v93.73c0 26.79 8.33 51.76 26.77 67.69 24.59 21.12 60.57 22.94 84.76 22.94a194.7 194.7 0 0 0 28.06-2c16.36-2.59 31-15.32 29.19-33.77-0.9-18.9-9.59-28.67-30-29-18.36-0.28-45.06 5.51-62.95-9.61-5.12-6.28-8.94-16.94-8.94-28.59v-81.43l0.1-61.75H330a43.48 43.48 0 0 1-43.4-43.5V215.61A43.48 43.48 0 0 1 330 172.1h16.08A59.47 59.47 0 0 0 397 143.46c6.21-10.21 16.28-16.25 26.93-16.25h172.72c10.65 0 20.71 6 27 16.25a59.7 59.7 0 0 0 50.9 28.64h16.28a43.48 43.48 0 0 1 43.4 43.5v452.69a43.48 43.48 0 0 1-43.4 43.5H587.72a31.42 31.42 0 0 0-4.7-0.35 31 31 0 0 0 0 62c0.68 0 1.36 0 2-0.07v0.18h106.74c57.2 0 103.6-46.52 103.6-104v-455c0-57.37-46.4-104-103.6-104z" fill="#3FB1FA" /><path d="M634.69 561.23A37.19 37.19 0 1 0 597.5 524a37.19 37.19 0 0 0 37.19 37.23zM523.12 586a24.79 24.79 0 1 0 24.79-24.79A24.79 24.79 0 0 0 523.12 586" fill="#FFFFFF" /></svg>