<?xml version="1.0" standalone="no"?><!DOCTYPE svg PUBLIC "-//W3C//DTD SVG 1.1//EN" "http://www.w3.org/Graphics/SVG/1.1/DTD/svg11.dtd"><svg class="icon" width="200px" height="200.00px" viewBox="0 0 1024 1024" version="1.1" xmlns="http://www.w3.org/2000/svg"><path d="M919.78 225C879.54 148.83 807.32 107.22 711 104.67c-64-1.73-137.58 14.89-203.67 45.69C360.87 81.72 173.55 76.21 94.9 225a334.19 334.19 0 0 0-28 70.88A31.39 31.39 0 0 0 127.58 312a279.39 279.39 0 0 1 22.88-57.73c70.48-133.4 254.43-85.47 342-41.51 4.39 2.24 10.93 3.37 15.83 3.37a30.86 30.86 0 0 0 14.1-3.37c60.57-30.49 128.7-47.32 187-45.49 73.34 1.94 125.43 31.21 154.84 86.89 132.48 250.48-198.56 503.11-347.07 600.1a18.58 18.58 0 0 1-19.71 0C386.1 781.56 197.75 639.09 137.9 475.5h107.45l47.19 102.9a31.47 31.47 0 0 0 56.79 0.71l93-190 4.09 8.87a31.4 31.4 0 0 0 57.2-25.9L472 302.63a31.36 31.36 0 0 0-56.69-0.82L322.16 492l-28-60.78A31.36 31.36 0 0 0 265.68 413H97.25a31.45 31.45 0 0 0-31.46 31.41 32.39 32.39 0 0 0 0.61 6.32 32.06 32.06 0 0 0 0.82 9.28C118 656.93 337.07 824.5 463.11 906.91a81.44 81.44 0 0 0 88.45 0C714.48 800.53 1076.36 521.09 919.78 225z" fill="#3FB1FA" /><path d="M465 467.33c0 16.38 12.62 29.66 28.2 29.66s28.2-13.28 28.2-29.66-12.62-29.66-28.2-29.66-28.2 13.28-28.2 29.66z m33.52 82.86l40.92 94.68a30.41 30.41 0 0 0 25.83 18.67H567a30 30 0 0 0 26-15.45l87.75-153.79h106.19c16.76 0 30.37-14.31 30.37-31.94s-13.61-31.94-30.37-31.94H663.6a30.25 30.25 0 0 0-26 15.45l-66.88 117.38-17.06-39.41c-6.9-16.07-24.85-23.13-40.13-15.87s-21.88 26.24-14.98 42.21z" fill="#EE777B" /></svg>