<?xml version="1.0" standalone="no"?><!DOCTYPE svg PUBLIC "-//W3C//DTD SVG 1.1//EN" "http://www.w3.org/Graphics/SVG/1.1/DTD/svg11.dtd"><svg class="icon" width="200px" height="200.00px" viewBox="0 0 1024 1024" version="1.1" xmlns="http://www.w3.org/2000/svg"><path d="M767.8 958.33H256.36C200.48 958.27 155 913.28 154.94 858V238c0.06-55.28 45.54-100.28 101.39-100.33h100.8l0.13-0.26a48.8 48.8 0 0 1 43.94-27.17h37.94l-0.15-2.61v-0.81a41.45 41.45 0 0 1 41.34-41.16h63.27a41.37 41.37 0 0 1 41.4 41.25l-0.15 3.36h38a48.77 48.77 0 0 1 43.94 27.19l0.12 0.24h100.75c55.87 0.07 101.34 45.07 101.4 100.3v620a100 100 0 0 1-29.88 71.07 102.12 102.12 0 0 1-71.38 29.26zM256.36 197.2c-23.07 0-41.89 18.35-41.91 40.86V858c0 22.47 18.84 40.8 41.94 40.82h511.35a42.22 42.22 0 0 0 29.59-12.07l0.14-0.14A39.6 39.6 0 0 0 809.55 858V238c0-22.47-18.84-40.8-41.93-40.82H630l-13.65-27.43h-95.88l3.51-44.6H500l3.53 44.59h-95.9L394 197.2z" fill="#3FB1FA" /><path d="M605 214.45H389.22c-23.1 0-44.48-8-55.75-20.78l27.36-9c5.85 6.66 16.75 10.81 28.41 10.81H605c11.64 0 22.54-4.14 28.41-10.81l27.36 9c-11.31 12.82-32.68 20.78-55.77 20.78z" fill="#3FB1FA" /><path d="M333.47 363.22h357.06A29.76 29.76 0 0 1 720.29 393a29.76 29.76 0 0 1-29.76 29.76H333.47A29.76 29.76 0 0 1 303.71 393a29.76 29.76 0 0 1 29.76-29.78zM333.47 512h357.06a29.76 29.76 0 0 1 29.76 29.76 29.76 29.76 0 0 1-29.76 29.76H333.47a29.76 29.76 0 0 1-29.76-29.76A29.76 29.76 0 0 1 333.47 512zM333.47 660.78h357.06a29.76 29.76 0 0 1 29.76 29.76 29.76 29.76 0 0 1-29.76 29.76H333.47a29.76 29.76 0 0 1-29.76-29.76 29.76 29.76 0 0 1 29.76-29.76z" fill="#EE777B" /></svg>