<?xml version="1.0" standalone="no"?><!DOCTYPE svg PUBLIC "-//W3C//DTD SVG 1.1//EN" "http://www.w3.org/Graphics/SVG/1.1/DTD/svg11.dtd"><svg class="icon" width="200px" height="200.00px" viewBox="0 0 1024 1024" version="1.1" xmlns="http://www.w3.org/2000/svg"><path d="M511.41 63.81c-247.42 0-448 200.58-448 448s200.58 448 448 448 448-200.58 448-448-200.58-448-448-448z m0 829.27c-210.57 0-381.28-170.7-381.28-381.28s170.7-381.28 381.28-381.28 381.28 170.7 381.28 381.28S722 893.09 511.41 893.09z" fill="#3FB1FA" /><path d="M311.63 413.26V353h122.32q15-26.33 22.58-48.93h84.68A446.42 446.42 0 0 1 516.75 353h205.12v60.22H488.52l-16.94 33.87h272.87v58.34H439.59c-1.26 1.26-2.53 3.76-3.76 7.53q-11.29 16.94-15.05 26.35h286v67.75l-105.35 67.77 71.51 22.58-39.52 64q-124.2-47.06-291.68-101.62l32-56.45q67.75 18.83 146.78 45.16l90.33-50.81H338v-56.47c1.23-1.24 2.5-3.76 3.76-7.53q5.65-5.65 16.94-28.23H289v-58.33h99.74l18.82-33.87z" fill="#EE777B" /></svg>