<?xml version="1.0" standalone="no"?><!DOCTYPE svg PUBLIC "-//W3C//DTD SVG 1.1//EN" "http://www.w3.org/Graphics/SVG/1.1/DTD/svg11.dtd"><svg class="icon" width="200px" height="200.00px" viewBox="0 0 1024 1024" version="1.1" xmlns="http://www.w3.org/2000/svg"><path d="M511.41 63.81c-247.42 0-448 200.58-448 448s200.58 448 448 448 448-200.58 448-448-200.58-448-448-448z m0 829.27c-210.57 0-381.28-170.7-381.28-381.28s170.7-381.28 381.28-381.28 381.28 170.7 381.28 381.28S722 893.09 511.41 893.09z" fill="#3FB1FA" /><path d="M306.29 488.82q-3.79-16.94-13.17-60.22-7.54-35.72-11.29-50.81l45.17-9.41q9.39 45.16 20.7 99.74V327h163.71l-11.29-33.87 80.88-3.79L594.21 327h144.9v58.34H413.55v109.12q5.65 160-75.27 246.52-11.28-11.29-37.64-30.11c-6.29-5-11.29-8.79-15.05-11.29q52.66-58.31 58.34-124.2-9.44 5.65-30.11 18.82-16.94 9.44-24.46 15.05l-9.41-71.51q37.62-16.94 67.75-32v-28.21z m208.88 191.94l-30.11-32v88.45H423v-239h120.4v-30.09H421.08v-56.46H729.7v56.45H605.5v30.11h118.55v167.49q3.75 69.6-71.51 67.75-18.83 1.85-71.51 1.88a475.18 475.18 0 0 0-13.17-56.45h60.22q35.73 1.9 33.87-32V635.6l-33.87 33.87q-32-35.72-50.81-52.69-18.83 33.87-62.1 63.98z m-30.11-128v75.27q45.16-33.87 54.57-75.27z m176.89 0h-60.21l-1.88 11.29L662 616.78z" fill="#EE777B" /></svg>