<?xml version="1.0" standalone="no"?><!DOCTYPE svg PUBLIC "-//W3C//DTD SVG 1.1//EN" "http://www.w3.org/Graphics/SVG/1.1/DTD/svg11.dtd"><svg class="icon" width="200px" height="200.00px" viewBox="0 0 1024 1024" version="1.1" xmlns="http://www.w3.org/2000/svg"><path d="M512 959.95C264.61 959.95 64.05 759.39 64.05 512S264.61 64.05 512 64.05 959.95 264.61 959.95 512 759.39 959.95 512 959.95z m0-64c212.05 0 384-171.9 384-384S724.05 128 512 128 128 299.95 128 512s171.95 384 384 384z" fill="#3FB1FA" /><path d="M512 192a32 32 0 0 1 32 32v256a32 32 0 0 1-32 32 32 32 0 0 1-32-32V224a32 32 0 0 1 32-32z" fill="#EE777B" /><path d="M536 470.41l216.15 124.78a27.73 27.73 0 0 1 10.15 37.88 27.73 27.73 0 0 1-37.88 10.15L508.28 518.43a27.73 27.73 0 0 1-10.15-37.88A27.73 27.73 0 0 1 536 470.41z" fill="#EE777B" /></svg>