<?xml version="1.0" standalone="no"?><!DOCTYPE svg PUBLIC "-//W3C//DTD SVG 1.1//EN" "http://www.w3.org/Graphics/SVG/1.1/DTD/svg11.dtd"><svg class="icon" width="200px" height="200.00px" viewBox="0 0 1024 1024" version="1.1" xmlns="http://www.w3.org/2000/svg"><path d="M848.16 222.26v-12.47a12.53 12.53 0 0 0 12.57 12.47z m0 0h-65.49v-62.35h78.06A50.09 50.09 0 0 1 911 209.79V908.1a50.09 50.09 0 0 1-50.26 49.9H257.15a50.09 50.09 0 0 1-50.3-49.88v-78.83h62.87v66.34h578.44z m0 673.37h12.57a12.52 12.52 0 0 0-12.57 12.47z m-578.43 0v12.47a12.42 12.42 0 0 0-3.68-8.82 12.63 12.63 0 0 0-8.89-3.65z m0 0v12.47a12.42 12.42 0 0 0-3.68-8.82 12.63 12.63 0 0 0-8.89-3.65z m0 0h578.43V222.26h-65.49v-62.35h78.06A50.09 50.09 0 0 1 911 209.79V908.1a50.09 50.09 0 0 1-50.26 49.9H257.15a50.09 50.09 0 0 1-50.3-49.88v-78.83h62.87z m578.43 0h12.57a12.52 12.52 0 0 0-12.57 12.47z m0-673.37v-12.47a12.53 12.53 0 0 0 12.57 12.47z" fill="#0699F4" /><path d="M415.21 66h351.64a50.09 50.09 0 0 1 50.3 49.88v698.33a49.67 49.67 0 0 1-14.73 35.27 50.51 50.51 0 0 1-35.57 14.61H163.26A50.09 50.09 0 0 1 113 814.21V368.09L415.16 66z" fill="#0699F4" /><path d="M427.14 113h61.39v242.6c0 47.46-35.71 86-79.81 86H159.91v-66.21h248.86c10.17 0 18.42-8.88 18.42-19.84V113zM539.28 367.81c-17.52 0-31.72-15-31.72-33.53s14.2-33.53 31.72-33.53h152.25c17.52 0 31.72 15 31.72 33.53s-14.2 33.53-31.72 33.53zM285.52 582.42c-17.52 0-31.72-15-31.72-33.53s14.2-33.53 31.72-33.53h406c17.52 0 31.72 15 31.72 33.53s-14.2 33.53-31.72 33.53z" fill="#FFFFFF" /></svg>