<?xml version="1.0" standalone="no"?><!DOCTYPE svg PUBLIC "-//W3C//DTD SVG 1.1//EN" "http://www.w3.org/Graphics/SVG/1.1/DTD/svg11.dtd"><svg class="icon" width="200px" height="200.00px" viewBox="0 0 1024 1024" version="1.1" xmlns="http://www.w3.org/2000/svg"><path fill="#333333" d="M958.64 130.36c0-22.12-19.52-41.48-41.83-41.48H755.08c-22.31 0-41.83 19.36-41.83 41.48s19.52 41.48 41.83 41.48h64.1L654.69 335l-259.34-91.3c-11.15-2.77-25.1-2.77-36.25 2.77L83 440.07c-19.52 11.06-22.31 38.72-11.16 55.3Q88.61 512 105.34 512c8.37 0 16.73-2.77 22.31-8.3l253.76-179.79 262.12 94c13.94 5.53 30.67 2.77 41.83-11.06L875 224.36V299c0 22.12 19.52 41.48 41.83 41.48s41.83-19.36 41.83-41.48V130.36z"  /><path fill="#333333" d="M914 486.69c-22.33 0-41.87 19-41.87 40.76v334.28H690.66V606.27c0-21.74-19.54-40.76-41.87-40.76s-41.87 19-41.87 40.76v255.46H425.46v-356c0-21.74-19.54-40.76-41.87-40.76s-41.87 19-41.87 40.76v356H146.31V682.36c0-21.74-19.54-40.76-41.87-40.76s-39.08 21.76-39.08 40.76v218.8s1.69 13.46 2.59 15.2c6.84 13.21 15.92 17.11 28.12 18.75h815.11c20.87-2.7 31.91-4.71 45.21-30.49 0.78-1.52 2.25-13.33 2.25-13.33V524.75c-2.79-21.75-22.33-38.06-44.64-38.06z"  /></svg>