<?xml version="1.0" standalone="no"?><!DOCTYPE svg PUBLIC "-//W3C//DTD SVG 1.1//EN" "http://www.w3.org/Graphics/SVG/1.1/DTD/svg11.dtd"><svg class="icon" width="200px" height="200.00px" viewBox="0 0 1024 1024" version="1.1" xmlns="http://www.w3.org/2000/svg"><path d="M418.67 480.31l256.07 104.51L882 408.68a47.12 47.12 0 0 1 77.63 35.91v468.17a47.12 47.12 0 0 1-47.12 47.12H111.47a47.12 47.12 0 0 1-47.12-47.12V730.91A94.24 94.24 0 0 1 108.64 651l267.25-167a47.12 47.12 0 0 1 42.78-3.69z" fill="#0699F4" /><path d="M959.65 153.27c0-22.17-19.56-41.58-41.92-41.58h-162.1c-22.36 0-41.92 19.4-41.92 41.58s19.56 41.58 41.92 41.58h64.28L655 358.39l-259.91-91.47c-11.18-2.77-25.15-2.77-36.33 2.77l-276.69 194c-19.56 11.09-22.36 38.81-11.18 55.44q16.77 16.63 33.54 16.63c8.38 0 16.77-2.77 22.36-8.32L381.12 347.3l262.72 94.24c14 5.54 30.74 2.77 41.92-11.09l190.05-182.93v74.84c0 22.17 19.56 41.58 41.92 41.58s41.92-19.4 41.92-41.58V153.27z" fill="#0699F4" /><path d="M149.16 798.81a37.7 37.7 0 0 1 37.7 37.7V894a37.7 37.7 0 0 1-37.7 37.7 37.7 37.7 0 0 1-37.7-37.7v-57.5a37.7 37.7 0 0 1 37.7-37.69zM384.77 621.58a37.7 37.7 0 0 1 37.7 37.7V894a37.7 37.7 0 0 1-37.7 37.7 37.7 37.7 0 0 1-37.7-37.7V659.28a37.7 37.7 0 0 1 37.7-37.7zM620.38 665.89a37.7 37.7 0 0 1 37.7 37.7v190.26a37.7 37.7 0 0 1-37.7 37.7 37.7 37.7 0 0 1-37.7-37.7V703.59a37.7 37.7 0 0 1 37.7-37.7zM856 488.67a37.7 37.7 0 0 1 37.7 37.7V894a37.7 37.7 0 0 1-37.7 37.7 37.7 37.7 0 0 1-37.7-37.7V526.36a37.7 37.7 0 0 1 37.7-37.69z" fill="#FFFFFF" /></svg>