<?xml version="1.0" standalone="no"?><!DOCTYPE svg PUBLIC "-//W3C//DTD SVG 1.1//EN" "http://www.w3.org/Graphics/SVG/1.1/DTD/svg11.dtd"><svg class="icon" width="200px" height="200.00px" viewBox="0 0 1024 1024" version="1.1" xmlns="http://www.w3.org/2000/svg"><path d="M512 957.91c-111.14 0-215.06-9.53-292.6-26.83-43.52-9.71-78-21.79-102.61-35.88-23.13-13.27-50.7-36.45-50.7-71.49 0-40.26 12.8-79 38.05-115.2 23.35-33.46 56.37-63.26 98.16-88.59 83.19-50.42 193.17-78.19 309.69-78.19s226.51 27.77 309.69 78.19c41.79 25.33 74.81 55.13 98.16 88.59 25.25 36.19 38.06 74.94 38.06 115.2 0 35-27.57 58.22-50.7 71.49-24.56 14.1-59.09 26.17-102.61 35.88-77.53 17.3-181.45 26.83-292.59 26.83z m0-356.73c-105.81 0-204.85 24.71-278.88 69.58-69.37 42-107.58 96.36-107.58 152.94 0 6.62 19.62 29.89 106.8 49.35 73.42 16.39 172.74 25.41 279.65 25.41s206.23-9 279.65-25.41c87.18-19.45 106.8-42.73 106.8-49.35 0-56.58-38.2-110.9-107.58-152.94-74.01-44.87-173.05-69.58-278.86-69.58z" fill="#3FB1FA" /><path d="M439.54 434.77c-52.11 0-96.8-11.54-133.25-34.47l-6.87-4.3V259.24l19.36 6.45c86.15 28.72 161.4 38.25 223.66 28.33 60.94-9.71 111.34-38.56 149.81-85.74l18.25-22.39 7.37 27.93c9.52 36.12 14.35 80.21 14.35 131v9.47l-8.62 3.92c-92.3 41.94-173.83 66.91-242.31 74.21a394.15 394.15 0 0 1-41.75 2.35z m-110.71-55.26C409.34 425 535 410.2 702.74 335.39c-0.4-32.17-2.87-61.2-7.38-86.74-40.18 40.12-89.94 65.11-148.3 74.41-62.17 9.91-135.5 2.07-218.23-23.28z" fill="#EE777B" /><path d="M512 601.18c-64.28 0-124.48-28.34-169.51-79.81-44-50.34-68.3-117-68.3-187.74s24.26-137.4 68.3-187.74c45-51.46 105.23-79.81 169.51-79.81s124.48 28.35 169.51 79.82c44 50.34 68.3 117 68.3 187.74S725.56 471 681.51 521.38c-45.03 51.46-105.23 79.8-169.51 79.8z m0-475.64c-98.35 0-178.36 93.35-178.36 208.09s80 208.09 178.36 208.09 178.36-93.35 178.36-208.09S610.35 125.55 512 125.55z" fill="#3FB1FA" /></svg>