<?xml version="1.0" standalone="no"?><!DOCTYPE svg PUBLIC "-//W3C//DTD SVG 1.1//EN" "http://www.w3.org/Graphics/SVG/1.1/DTD/svg11.dtd"><svg class="icon" width="200px" height="200.00px" viewBox="0 0 1024 1024" version="1.1" xmlns="http://www.w3.org/2000/svg"><path d="M934.88 120.21H89.12c-12.46 0-24.87 12.21-24.87 24.43v684.94c0 12.22 12.42 24.42 24.87 24.42H213.5v24.47c0 12.22 16 25.29 30.3 25.29 14.68 0 29.73-13.07 29.73-25.29V854h476v24.47c0 12.22 16.21 24.07 31.59 24.46 13.7 0.34 29.43-12.24 29.43-24.46V854h124.33c12.43 0 24.87-12.22 24.87-24.46V144.67c0-12.22-12.44-24.46-24.87-24.46z m-45.17 668.7H134.27V185.35h755.44z" fill="#3FB1FA" /><path d="M274.1 601.55c68 54.73 152.93 84.58 237.91 84.58s169.93-29.85 237.91-84.58L616.38 337.88H402.75zM512 735.88c-104.39 0-206.35-39.8-286.47-109.45a26.92 26.92 0 0 1-4.85-29.84l148.08-296c4.86-7.46 12.14-12.44 21.85-12.44h242.78c9.71 0 17 5 21.84 12.44l148.09 296a27 27 0 0 1-4.86 29.85C718.35 696.08 616.38 735.88 512 735.88z" fill="#EE777B" /><path d="M514.47 493.84c-29.58 0-56.7-7.66-83.82-17.88-12.32-5.1-17.24-20.42-12.32-33.19s19.73-17.86 32-12.76c39.45 17.87 86.28 17.87 123.25 0 12.33-5.11 27.11 0 32 12.76s0 28.08-12.32 33.19c-22.19 12.77-49.29 17.88-78.87 17.88m0 102.12c-44.37 0-88.74-10.21-128.17-30.63C374 560.21 369 544.89 374 532.12s19.71-17.86 32-12.76a238.1 238.1 0 0 0 212 0c12.33-5.11 27.11 0 32 12.76s0 28.08-12.32 33.2C603.2 585.74 558.83 596 514.47 596" fill="#EE777B" /></svg>